<svg xmlns="http://www.w3.org/2000/svg" viewBox="0 0 900 600">
  <rect fill="#DE2910" width="900" height="600"/>
  <g fill="#FFDE00">
    <polygon points="150,120 170,180 230,180 180,210 200,270 150,240 100,270 120,210 70,180 130,180"/>
    <polygon points="270,60 280,90 310,90 285,105 295,135 270,120 245,135 255,105 230,90 260,90"/>
    <polygon points="330,120 340,150 370,150 345,165 355,195 330,180 305,195 315,165 290,150 320,150"/>
    <polygon points="330,210 340,240 370,240 345,255 355,285 330,270 305,285 315,255 290,240 320,240"/>
    <polygon points="270,270 280,300 310,300 285,315 295,345 270,330 245,345 255,315 230,300 260,300"/>
  </g>
</svg>
