<svg xmlns="http://www.w3.org/2000/svg" viewBox="0 0 640 480"><path fill="#012169" d="M0 0h640v480H0z"/><path fill="#FFF" d="M75 0l225 150H75zm490 0L340 150h225zM0 75v150h150zm640 0v150H490zM75 480l225-150H75zm490 0L340 330h225zM0 405v-150h150zm640 0v-150H490z"/><path fill="#C8102E" d="M100 0l240 160H100zm440 0L300 160h240zM0 100v160h160zm640 0v160H480zM100 480l240-160H100zm440 0L300 320h240zM0 380v-160h160zm640 0v-160H480z"/><path fill="#FFF" d="M240 0h160v480H240z"/><path fill="#FFF" d="M0 240h640v160H0z"/><path fill="#C8102E" d="M280 0h80v480h-80z"/><path fill="#C8102E" d="M0 280h640v80H0z"/></svg>